<?xml version="1.0" standalone="no"?><!DOCTYPE svg PUBLIC "-//W3C//DTD SVG 1.1//EN" "http://www.w3.org/Graphics/SVG/1.1/DTD/svg11.dtd"><svg t="1667027399093" class="icon" viewBox="0 0 1024 1024" version="1.1" xmlns="http://www.w3.org/2000/svg" p-id="11934" xmlns:xlink="http://www.w3.org/1999/xlink" width="200" height="200"><path d="M876.436681 652.855895V248.919942c0-53.659389-34.282387-46.206696-34.282387-46.206696H229.54294c-56.640466 0-49.187773 34.282387-49.187773 34.282387V655.836972l-149.053857 83.47016v46.206696h974.812227v-49.187773l-129.676856-83.47016z m-34.282387 35.772926H894.323144v10.43377h-52.16885v-10.43377z m65.583697 16.395924v10.43377h-52.16885v-10.43377h52.16885z m-120.733624-32.791848h52.16885v10.43377h-52.16885v-10.43377z m-2.981077 32.791848h52.16885v10.43377h-52.16885v-10.43377z m-10.43377-5.962154v-10.43377h52.16885v10.43377h-52.16885z m-50.678312-26.829694H775.080058v10.43377h-52.16885v-10.43377z m-10.43377 32.791848h52.16885v10.43377h-52.16885v-10.43377z m-5.962154-5.962154v-10.43377H760.174672v10.43377h-53.659388zM655.836972 672.232897h52.16885v10.43377H655.836972v-10.43377z m-16.395924 16.395924h52.16885v10.43377h-52.16885v-10.43377z m55.149927 16.395924v10.43377h-52.16885v-10.43377h52.16885z m-110.299854-32.791848h52.16885v10.43377h-52.16885v-10.43377z m-11.924309 16.395924h52.16885v10.43377h-52.16885v-10.43377z m52.16885 16.395924v10.43377h-52.16885v-10.43377h52.16885z m-104.3377-32.791848h52.16885v10.43377h-52.16885v-10.43377z m-14.905386 26.829694v-10.43377h52.16885v10.43377h-52.16885z m47.697235 5.962154v10.43377h-52.16885v-10.43377h52.16885z m-98.375546-32.791848H506.783115v10.43377h-52.16885v-10.43377z m-16.395924 26.829694v-10.43377h52.16885v10.43377h-52.16885z m43.225618 5.962154v10.43377h-52.16885v-10.43377h52.16885z m-90.922853-32.791848h52.16885v10.43377h-52.16885v-10.43377z m-19.377001 26.829694v-10.43377h52.16885v10.43377h-52.16885z m40.244541 5.962154v10.43377h-52.16885v-10.43377h52.16885z m-86.451237-32.791848h52.16885v10.43377h-52.16885v-10.43377z m-87.941776 26.829694v-10.43377h52.16885v10.43377h-52.16885z m32.791849 5.962154v10.43377h-52.16885v-10.43377h52.16885z m17.886463 0h52.16885v10.43377h-52.16885v-10.43377z m16.395924-5.962154v-10.43377h52.16885v10.43377h-52.16885z m-43.225619-26.829694H313.0131v10.43377h-52.16885v-10.43377z m-64.093158 0h52.16885v10.43377h-52.16885v-10.43377z m-28.320233 16.395924h52.16885v10.43377h-52.16885v-10.43377z m-22.358079 16.395924h52.16885v10.43377H146.07278v-10.43377z m445.671034 68.564775h-128.186318v-19.377002l128.186318 1.490539v17.886463zM38.754003 740.797671l19.377001-11.924309h931.586609l14.905386 11.924309H38.754003z" fill="#bfbfbf" p-id="11935"></path></svg>